<mxfile host="app.diagrams.net" modified="2022-11-09T16:50:28.242Z" agent="5.0 (Windows NT 10.0; Win64; x64) AppleWebKit/537.36 (KHTML, like Gecko) Chrome/107.0.0.0 Safari/537.36" etag="9kihrlUyQbiwLA2DuxOE" version="20.5.1" type="github">
  <diagram id="V6XCxeuOdw0Wddf_4FhT" name="Page-1">
    <mxGraphModel dx="1038" dy="579" grid="1" gridSize="10" guides="1" tooltips="1" connect="1" arrows="1" fold="1" page="1" pageScale="1" pageWidth="850" pageHeight="1100" math="0" shadow="0">
      <root>
        <mxCell id="0" />
        <mxCell id="1" parent="0" />
        <mxCell id="amhgZx7DJore0Js3WMlD-2" value="" style="rounded=0;whiteSpace=wrap;html=1;fillColor=#eeeeee;strokeColor=#34373B;" vertex="1" parent="1">
          <mxGeometry x="40" y="40" width="760" height="1040" as="geometry" />
        </mxCell>
        <mxCell id="amhgZx7DJore0Js3WMlD-3" value="" style="rounded=1;whiteSpace=wrap;html=1;strokeColor=#36393d;strokeWidth=1;fillColor=#eeeeee;" vertex="1" parent="1">
          <mxGeometry x="50" y="50" width="740" height="60" as="geometry" />
        </mxCell>
        <mxCell id="amhgZx7DJore0Js3WMlD-4" value="" style="rounded=0;whiteSpace=wrap;html=1;strokeColor=#36393d;strokeWidth=1;fillColor=#eeeeee;" vertex="1" parent="1">
          <mxGeometry x="50" y="120" width="180" height="320" as="geometry" />
        </mxCell>
        <mxCell id="amhgZx7DJore0Js3WMlD-5" value="" style="rounded=1/2;whiteSpace=wrap;html=1;strokeColor=#36393d;strokeWidth=1;fillColor=#eeeeee;" vertex="1" parent="1">
          <mxGeometry x="610" y="120" width="180" height="460" as="geometry" />
        </mxCell>
        <mxCell id="amhgZx7DJore0Js3WMlD-6" value="" style="rounded=0;whiteSpace=wrap;html=1;strokeColor=#36393d;strokeWidth=1;fillColor=#eeeeee;" vertex="1" parent="1">
          <mxGeometry x="240" y="210" width="360" height="650" as="geometry" />
        </mxCell>
        <mxCell id="amhgZx7DJore0Js3WMlD-7" value="" style="rounded=0;whiteSpace=wrap;html=1;strokeColor=#36393d;strokeWidth=1;fillColor=#eeeeee;" vertex="1" parent="1">
          <mxGeometry x="240" y="120" width="360" height="80" as="geometry" />
        </mxCell>
        <mxCell id="amhgZx7DJore0Js3WMlD-8" value="&lt;font color=&quot;#34373b&quot;&gt;logo&lt;/font&gt;" style="ellipse;whiteSpace=wrap;html=1;aspect=fixed;strokeColor=#36393d;strokeWidth=1;fillColor=#eeeeee;" vertex="1" parent="1">
          <mxGeometry x="60" y="61.88" width="36.25" height="36.25" as="geometry" />
        </mxCell>
        <mxCell id="amhgZx7DJore0Js3WMlD-10" value="&lt;font color=&quot;#34373b&quot;&gt;PLACE 1&lt;br&gt;&lt;/font&gt;" style="rounded=1;whiteSpace=wrap;html=1;strokeColor=#36393d;strokeWidth=1;fillColor=#eeeeee;" vertex="1" parent="1">
          <mxGeometry x="250" y="130" width="60" height="60" as="geometry" />
        </mxCell>
        <mxCell id="amhgZx7DJore0Js3WMlD-11" value="" style="shape=image;imageAspect=0;aspect=fixed;verticalLabelPosition=bottom;verticalAlign=top;strokeColor=#34373B;strokeWidth=2;gradientColor=none;image=data:image/png,iVBORw0KGgoAAAANSUhEUgAAAgAAAAIACAYAAAD0eNT6AAAABHNCSVQICAgIfAhkiAAAAAlwSFlzAAAN1wAADdcBQiibeAAAABl0RVh0U29mdHdhcmUAd3d3Lmlua3NjYXBlLm9yZ5vuPBoAAFMBSURBVHja7b1nlBTXoah7jGUdy5Zl3WWdZ91z9c49en5eXn5nreuzLHLOYYCBAYbMkMMQRM4iw5BzzhlEGHLOcXLOOeeEZRkhCZj9qkYNHqGeoWe6qrrC9+NbtmXETHdX7e/rql17/4sQ4l8AQN9MznrynsQnEn+RaC3hKTFGYq7EOomDEqclLkpcl7gn4S8RKhEjkSyRKVEg8UTiqcQLG09t/6zA9meSbf9OqO3vuGf7Oy/afsZB28+ca/sdPG2/019sv+N7fGYA+oc3AcC1Yn9X4g8SbSVGSCyTOCpxWyJCIlviGwlhML6x/e4Rttdy1PbaRtheq/ya3+UYACAAAMwq+DoS/ynRUmKoxCKJQxIPbIJ8aUC5K8VL23vwwPaeLLK9Ry1t71kdjiEAAgDACLL/yHYpfKLEXolgg35719NVhGDbeznR9t5+xLEGQAAAuPKyvXy/e5DEaolrEnkIWzPybO/5attn8BduJwAQAABqCF++X+0lsUsiWuI5EtYdz22fzS7bZ/UHjl0AAgCgJrJ/R6KexCTbjPd85GpY8m2f4STbZ/oOxzgAAQDwSvgfSHSQWCxxx/ZIHPI0J09tn/Fi22f+AecAEAAA1pqV39A24zzQ4rPwrc5L2zGwyHZM8NQBEAAAJpP+xxKDJY5LlCI+qIJS2zEiHysfc+4AAQBgzPv4zSV8JMIkypEb1JBy27HjYzuWmD8ABACATqX/W9s3N1+JrxAYKMxXtmNLPsZ+yzkHBACAa6X/G4kBEhckvkNSoBHf2Y45+dj7DeciEAAA2kj/1xJ9JM5IPENG4GKe2Y5F+Zj8NecoEAAAykpf3gmvp8RJHtMDnT9meNJ2rLIjIhAAAE48rtdR4pjE18gFDMbXtmO3I48XAgEA4Jj45f3k59v2pUckYAYybcf0J5zjQAAA/Fj6P5dwl7go8QJhgEl5YTvG5WP955z7QACAlcX/qcRSiVzkABYj13bsf8pYAAQAWEX6v5DoJXGDBXoAKs6BG7Zz4heMEUAAgBnF/5HtPmghgz6AXQpt58hHjBlAAIAZxP9Hie0S3zDAAzjEN7Zz5o+MIUAAgBHF31TiLLvtATi1W6F8DjVlTAECAIwwm1++lxnA4A2gKAG2c4unB4AAAN0tzztBIpWBGkBV0mznGssOAwEALhX/B7ZJS2UMzACaUmY79z5gLAICALT+xj9TopSBGMCllNrORa4IAAEAqor/lxKTeZQPQJePEMrn5i8Zq4AAACXF/67EWFbsAzDECoPyufouYxcQAOCM+N+RGMHGPACG3IBIPnffYSwDAgBqIn55K95BEikMpACGJsV2LrMlMRAA8Fb5t5SIYOAEMBXyOd2SMQ4IAKhqZz5fBkoAU+PLDoRAAMAr8b8v4SPxLYMjgCX41nbOv88YSACANcX/M4khEvkMiACWJN82BvyMMZEAAOvIv4lEMAMgANjGgiaMjQQAmFv8/yFxnAEPAOwgjw3/wVhJAID5dumbJvGUQQ4AquGpbaxg10ECAEwg//+WCGFgA4AaII8Z/80YSgCAcdftXyHxnMEMAGrBc9sYwv4CBAAYbDGfJAYwAFCAJBYRIgBA/+L/UGK3RDmDFgAoSLltbPmQsZYAAP3Jv4dEHgMVAKiIPMb0YMwlAEAf4v9Y4gwDEwBoiDzmfMwYTACA6+TvLlHMYAQALkAee9wZiwkA0Fb8v5LYwQAEADpAHot+xdhMAID68v+rRAKDDgDoCHlM+itjNAEA6oi/jsQMie8ZbABAh3xvG6PqMGYTAKCc/D+RuMMAAwAGQB6rPmHsJgDAefl7SpQxqACAgZDHLE/GcAIAaif+9yX2M5AAgIGRx7D3GdMJAHBc/n+SiGPwAAATII9lf2JsJwDg7fLvLvEVgwYAmAh5TOvOGE8AQNWz/H1Yxx8ATLyfgA9PCRAA8GP5/07iOgMEAFgAeaz7HWM/AYD8f1jYJ4NBAQAsRAYLBxEAVpf/EIlnDAYAYEHksW8ILiAArCb+dyW2MQAAAFSMhe/iBgLACvL/vYQfJz0AwGvkMfH3OIIAMLP8/yyRzskOAPAT5LHxz7iCADCj/FtJPOEkBwCoEnmMbIUzCAAzyd9rMrv4AQA4gjxWeuEOAsAM8l/ICQ0AUGMW4hACwMgz/Q9xEgMA1JpDPCFAABhN/h9K3OXkBQBwGnks/RC3EABGkP+nk9nJDwBASeQx9VMcQwDoWf6fSRRysgIAKI48tn6GawgAPcq/6WS28QUAUBN5jG2KcwgAPcm/ncRTTk4AANWRx9p2uIcA0IP8u0l8y0kJAKAZ8pjbDQcRAK6Ufz+J55yMAACaI4+9/XARAeAK+Y+QeMlJCADgMuQxeAROIgC0lP8kiXJOPgAAlyOPxZNwEwGghfy/4IQDANAdX+AoAkBN+a/kJAMA0C0rcRUBgPwBAIgAIAC47A8AwO0AIABqPuGPEwoAwFgwMZAAcPpRP2b7AwAY8+kAHhEkAGq9yA/P+QMAGHudABYLIgBqvLwvK/wBAJhjxUCWDSYAHN7Yh7X9wRxklIqJyfni89hMMT4yRXweny0mZZTwvoDVkMd0NhAiAN66pS+7+oEhkGU+5l6QGH7qohi0bY/os3Cp6DFugujat6/o7OEh3Lp0Fp06dbRL5+7dRNd+/UTzdu1Ek9ZtRGuPHqLTKG/Rc9Fy4XX4lBgbEC0mpRXzPoOZkMd2thImAOzK/7PJP+w1zYkCumRSWpEYdeOhGLB+q+g+clSVcq8JjRo1Ep999pld6tevL5q0aCnaePYWXafPFgMPfClFRw6fBRgZeYz/DOcRAJXl/6lEIScH6I2JKQVi6NHTotf0WaJzt26KSN/RAKiKxq3biI6jvMWAvUfFxKR8PicwGvJY/ynuIwBk+X8oEcdJAXpiQmSqGLhxu+jSs6fi0nc2ACpTt25d0bRtO+E2eqwYuE8KggSuEIAhkMf8DwkAa8v/XYm7nAygF7wfhok+8xcLt86dVRW/UgHwJvXq1RMtOncRHouWiwmxmXymoGfksf9dAsC6AXCIkwB0cak/OV/0W7FWdHLrpIn41QqAN68OtOrZSwzYd1RMzizjcwY9cogAsKb8F3Lwgx4Ydf2BcB84UFPxaxEAlWkg/ZxOo8eKUXcD+cxBbywkAKwlfy8OenD5t/6kPNHPZ7VLxK91AFRGnjPQY5FPxWOMHAegE7wIAGvIv5XE9xzw4NJJftHpotvQYS6Vv6sCoPJ8gY4jx4hxkakcE+BqZCe0IgDMLf8/SzzhYAeXyj8qVXQbPMTl8nd1AFQOgc7jJ4kJ8VkcH+BKZDf8mQAwp/x/L5HOQQ6uRF6O191rsC7kr5cAeB0CDRqIrtNmVax9wLECLkJ2xO8JAPM97ufHwQ0ulX94snAf5KUb+estAF6vQNiwoeg+b7GYlM6eBeAS/KzyeKBVAmAbBzW49jG/At1c9td7ALx+cqBxE9Fr+VqOH3AF2wgAc8h/CAczuJr+K9fpTv56D4BXNGreXPTdupvjCLRmCAFgbPn/VeIZBzK4ktE3Hmm+wI+ZAuAVTdq0Eb1XbxQTUws5rkALZHf8lQAwpvx/J5HBQQyuftbffeAgXcrfaAHwerJg/fqivdcQMezSLY4xUBvZIb8jAIwl/zoS1zl4wdW4eqEfMwbAj24PNGsm2vYfKHqtWCe8A2M45kANZJfUIQCMEwA+HLTgasbcC9K1/M0QAG/SsEkT0cazj+ixeLkYdT+Y4xCUwocAMIb8u0uUc8CCq+k9byEB4PJHChuJVh49ROcJk0VPn9Vi0OFTYsyjcF1vTjQxKV+MehDKOaQvZKd0JwD0Lf8/SXzFwQquX+0vTbMtfQmA2u1UKG9Q1KRNWykQeoqOw0eJ7nMWiL6bdoqB+4+JwScviOGX74jR94PF2LAkhxYnkv+MvNDTmMcRYuSNR2LouevC69gZMWDPEdF38y7huWqD6LF4RcXP6TplhnAbN1G0GzREtOzWvWJ/BPnqhbwq4qvfsUdQIueSvpDd8icCQJ/yf18ijoMU9MCgrbt1L38rB4AzyxbXb9BAiofGFQsWyRMS61aStpI03rhH9IxmwySdITvmfQJAfwGwn4MT9IC8gl3XPn0JAHAuALwnioZ+iUSA/thPAOhL/p4clKAXhvteNoT8CQCdP+HQxb0iAIgAXeJJAOhD/p9IlHFAgtrP848Ljq1Y1Gf4qYvCa/chMXDTjopL/V479lX878H7j4khh06I7iNHEwDg/ATGRo1fBwARoDtk53xCALj+ef87HIygtOxHXr4jBqzbLDzGeIvOHh6GEToBYLKrAFf9iQD9csfo6wMYPQBmcBCCEhv1jLp6XwzcsE14eI8TnTq7mVb4BIDB5gGs2PSjACACdMcMAsB16/x/zwEItSKzTIy6dl/0njtfuHXpbBnhEwAGC4Bho38SAESArvjeyPsFGFX+v5JI4OCDmvJ5Qq7w2nlAuA/ysqz0CQADrWzYoZPdACACdIXsol8RANoFwA4OOqjpZX6vnftFl549ED8BYJx1Bxo0qDIAiABdsYMA0Eb+7hxsUJNn8occOC669O6N8AkAY04EvB1GBBgDdwJAXfl/LFHMgQaOMDYwWniM9kb0BICx5wHsOVltABABukF208cEgHoBcIaDDByZ4Dd43xHh5t4VyRMAxg+ARaveGgBEgG44QwCoI/8eHFzw1k14YtJFz4mTkTsBYLolgYkAw9CDAFBW/h9K5HFgQXWMC4wR7gMHInYCwFxzADz7ORwARIAukF31IQGgXADs5qCC6hh920906dkTqRMA5nsUsH2HGgUAEaALdhMAysi/pUQ5BxRUufnOmSvCrSv3+wkAk+4J0KRJjQOACHA5srNaEgDOyf+XEkkcTFAVIy/eEp3cOiFzAsC01K1bt1YBQAS4HNldvyQAah8AKziIoCq8H4WJzt27IXICwPzzAM4/IAKMyQoCoHby/2+J5xxAYHe2f2Sq6NqvHxInAKwRAFv21zoAiACXIjvsvwmAmsn/5xIhHDxgf1nffNF95GgETgBY51HAZeucCgAiwKXILvs5AeB4AEzjoIGq6LNwKfImAKwVAHMWOx0ARIBLmUYAOCb//5B4ygEDdif9XbqNuAkA6wXAxBmKBAAR4DJkp/0HAfD2ADjOwQJVbeXLfX8CwJIBMHKcYgFABLiM4wRA9fJvwkECVdF36QqkTQBYMwAGDVU0AIgAl9GEALAv/59JBHOAgD1GXb2PsAkA6wZAr76KBwAR4BJkx/2MAPhpAAzh4ICqdvfrNnQYwiYArPsYYNfuqgQAEeAShhAAP5b/+xL5HBhgjxHnryNrAsDa+wF06KhaABABmiO77n0C4J8B4MNBAVXhMcYbWRMA1g6AVq1VDQAiQHN8CIAf5P+pxLccEGD33v817v0TANCgeQvVA4AI0BTZeZ8SAFlPfDkYoCp6TpyMqAkAAkCjACACNMXX0gFg2+qXAwHsMuZuIJImAEAOgBYtNQsAIkBTWloyAKQXXkciggMAeO6fAAB9BQARoBmyA+tYMQAG8eFDVUxKLxFdevVC0gQAyAHQspXmAUAEaMYgSwWA9ILfkUjhg4eqF/65h6AJANDwKQAiwGXILnzHSgEwgg8duPxPAID+A4AI0IQRlggA6YW+K5HJBw5c/icAwMEAaN3GpQFABKiO7MR3rRAAY/mwgcv/BADUJADaujwAfoiAHMYo9Rhr6gCQXuAvJXL5oKE6+i1biZwJAKgcAG3b6SIAiABVkd34SzMHwGQ+ZHgb3Yaw8Q8BAD/aDKiLu24CgAhQlcmmDADphf1aopAPGKrj84Rc0cmtE3ImAKByAPTur6sAIAJUQ3bkr80YADP5cIG1/wkAqDmNR3jrLgCIANWYaaoAkF7QBxKlfLDwNgZt34uYCQB4MwCmztFlABABqiC78gMzBcB8PlRwBM8ZsxEzAQBvBsCStboNACJAFeabIgBs9/7L+EDBEbr07o2YCQB4cw7AtkO6DgAiQHHKtJgLoEUATODDBEcYH5aIlAkAsBcAp27oPgCIAMWZYOgAkF7AzyXS+CDBEYb7XkbKBADYWwfgfrQhAoAIUBTZnT83cgD04kMERxmwZiNSJgDgDerWq2cY+RMBitPLyAEQwAcIjtJj3ASkTADAG9Rv3NhwAUAEKEaAIQNA+sWb8uFBTTYAcuvaFSkTAPAGDVq2MmQAEAGK0dSIAXCWDw4cxfthKEImAMDe/f+OboYNACJAEc4aKgCkX/iPEi/54MBRhhw6gZAJALD3BEDP3oYOACLAaWSX/tFIAbCdDw1qQt/FPgiZAAB7iwANHmH4ACACnGa7IQJA+kU/kviGDwxqNAFwwkSETACAvQCYMM0UAUAEOIXs1I+MEAAs+ws1xn3AQIRMAIC9AJi/3DQBQAToa3lgpeX/C7b8hRqTUSo6dXZDyAQA2AuAjXtMFQBEgFNbBf9CzwHAwj9Q8yWAI5KRMQEABl8GuMYREEMEuHphIKUD4AYfENSUMXcCkDEBAHaoZ8BVAIkAVbmhywCQfrFPJcr5gKDGewCcvoSMCQCwtwZAqzamDgAioMbIjv1UjwGwlA8HaoPXzgPImAAAe5f/e/czfQAQATVmqa4CwLbrXy4fDNSGfsvXIGMCAOxNAJw61xIBQATUiFyldglUKgDc+VCgtnhOn4WMCQCwFwC7jlkmAIiAGuGupwC4yAcCtaX78JHImACAN7cBrltXNLwfbakAIAIc5qIuAkD6RT6ReMEHArWls4cHMiYA4M1dAJs2tZz8iQCHkZ37iR4CgJX/oNZ8npCLiAkAsDcB0L27ZQOACNBmZUBn5V9HIpMPAmrLuKBYREwAgL37/2MmWDoAiIC3Iru3jisDoCMfAjiD9+MIREwAgL0AWLXV8gFABLyVjq4MgGN8AODUKoD3g3Ujw359e4g500eKKZ8PEYMHeYquXTsTAOC6WwCX/QgAIuBtHHNJAEg/+D2Jr/kAwBlG3/Zzmfzc3TuL9SumiICbW0RJykkhSi//hNzYo2L35tnCs1c3AgC0WwK4QUPETwQ4guzg91wRAD1588FZRl27r7n0+vT2EId2zhNP0k7Zlb49vs0/L675rhJeA3sRAKD+EsDtOyB9IsBReroiAE7yxoOzjLx0W1PhrfWZLJ7mnHVY/G9SJkXDxHGDCQBQ9/7/oKEInwhwlJOaBoD0A38t8ZQ3HpxlxLlrmoiubx8P8fj6plqLvzLf5Z+vCAkCAFQLgC+WIXsiwFFkF/9aywDow5sOiuwEeOqi6pKbOnFojS73O8rtC+tED4+uBAAoPwHQ9zaiJwJqQh8tA+AMbzgowbDjZ1UV3II5Yyq+sSst/8qTBCd4DyIAQDHqN2mC4ImAmnJGkwCQftBvJJ7xhoMSDD18UtX7/S+KLqom/1c8L7wgdmyYSQCAQlsA90fuREBNkZ38Gy0CYABvNijF4P3HVBHb5tXTRHnJZdXlX5nA21uF10BPAgCcu/+/dB1iJwJqwwAtAuACbzQoFgB7DikuNXkxHy2++Vf1uODBHfMq1hggAKA2OwA2uh2G1GtBLyLggqoBIP2A30p8h7hAKYYcUvYWwIihfcU/ss+4RP4/mhsQd0zMnz2GAICaPf/fqjUyJwJqi+zm36oZAIORFig6CfDkBcVkJq/WlxN71OXyr4z/zS1iqFdvAgAcu/w/bDQiJwKcYbCaAeCLtEDRhYAu3lREZF26uInwBzt0Jf/X6wYUXBBHdi8Q3XR4W4AA0NkEwK2HkDgR4Ay+qgSA9Be/I/EV0gJF9wK48UgRkV06sUKX8q9MQcJxseiLsQQA2F//v3590fBxPAInApxBdvQ7agRAc4QFim8H/CDEaYltXTdD9/KvTKz/nooQcHMjAKDS/f9OnRE3EaAEzdUIAB+EBUozLjjWKYHNnDLcZTP+nSU75ojYuGqqS58YIAB0dP9/0kykTQQogY8aARCGsEBpJkSl1VpeHt27ivyE44aUf2XkZYrlRwd7e3YnAKx8///ENYRNBChBmKIBIP2FH0uUIyxQmolJebWW17ljPoaXf2We5Z0T54/7iCEaPjVAAOhk+d9GjRE1EaAUsqs/VjIAePwP1CGzTHRy61RjcU35fIgoL7lkqgB4xcviS+L+5Q1iwlgvAsAql/89+yJpIkDzxwEdDYDjyArUokvvmn3jle+ZZ0UfNqX83yTy4U4xb9Zo1SYMEgA6CYD1uxA0EaAkxxUJAOkvqiNRiqhALTy8x9VIWl/uX2QJ+b85YfDQznli+JA+BIDZHv9r0IDH/4gApZGdXUeJAGiIpEBN+sxb5LCwxo0ZZNhZ/0qRELSvYvfB/n17EABmmPzn2Q8pEwFq0FCJAFiEpEBNBm7c7vBqfymhBywt/8rIcyDC7u8Q65ZPFr16uhMARr38v3EPQiYC1GCREgEQiKRATYYePe2QrHZtmo34q+B50UUR+WiX2Lt1jhg7eiABwOV/IAICnQoA6S/4QOIlkgI1GXX9gUMb/XyddQbZO0hJyglxzXe1WLZgfLVXBwgAF1/+790fCRMBaiG7+wNnAqADggLVVwMMiX9rAPgeXorYa4k8ZyLab3fFJMLZ00aKnj3cCQC9XP7ftBcBEwFq0sGZAFiMoEBtJqWXVLsWwOBBnuL7ggvIXLG5A5crHqO8eW6NGDrQXTRt0kjUrVsXIWt++b8h4iUC1GaxMwFwB0GBFnQbOqzKALhzYR3iVomy+K2iIHylyAz0EWf2TRQLZwwQA/u6ifZtW4hGjRqaPgzq168nmjdrLDp3bCUGSa97+gRPsWnZcHF6z0Rx/fg0sXPNKDFD+mcDencU7do0V/T9aNRnANIlAtTmTq0CwLb971PkBJo8CrhgiV35T/AeVPGNFVmrGwBVkfxwibhwcLJYOX+w8B7WTXTv2qZCmPUMEgb169evuMLRsX1L0c+zo5jk3VOsWTRE+O6dKKJuLxT5YSurff1vEn9vsRRJ/UXb1s2cD4CtBxEuEaA2T6vbHri6AKiHmEArBu89YjcAIh7uRNQuDICqkMUZeXOBuCjFwb4NY8SahUPE3Cl9xfiRPcSQAV2Ep0d70blTK9GmVTPRtGlj0bBhA1GvXj3pG7TjgpS/bcvI/56MLPNG0t8jC71F8yaijSThju1biK5urUS/Xh3E2OHdxfxp/cSW5cOF755JIvDyFyIjwKdWr88R5KsEnTq0rJX8GzRthmiJAK2oV5sAmISYQCtG33z0E/nPmT4SSes0AGpDTshykfRwSUU4PD4/R9w6MV3cPjld3D8zU/hdmCOCJGGHX59f8c089u6i18jfuuVbFFr9nrUJgQ7tWtRs8t/EGUiWCNCKSbUJgNOICbTi84TcnwRAJN/+TRUAZmfZnIGifr16b7+yIf2ZRjdDESwRoBWnaxMA+YgJtMTda/Br+U8aPxhBEwCGI+TqFxUTCqv99t+Lnf+IAE3Jr1EASP/CHxASaE0/n1WvA+Dx9U0ImgAwLMvnDapyomTjfaeRKhGgNX+oSQB4ISTQmhFnr1bIf9Twfsz8JwAMz8VDkysmLVaWf8NWrZEpEeAKvGoSALsQEmg+DyA+W7i5dRI3zq5BzgSAKQi/Mb/iSYjX3/7nLEakRIAr2FWTAIhGSOAS5k2t2NgGORMAZiE7eLno07ODqN+gvmj4IAaJEgGuINqhAJD+4LsSz5ERaM2ynHwRlX4DMRMApuTSyXnCOyQQgRIBrkB2+ruOBMBfkBFoyabcTBFT5C/KETIBYAFSY3aJZeH3kCgRoDV/cSQABiEl0Ipz+bGInwCwJFejfZEoEaAlgxwJgNWICdRmisT9gjAkTABYe92A2MOiiV8CIiUCtGC1IwFwDUGB2twuiEDABABIBMQeRaJEgBZccyQA8hAUqMmGnCwu+xMAUIkl4feRKBGgNnnVBoD0Bz5CUKAm07NKRWHxHeRLAEDl3RWjNoh2/rFIlAhQm4+qC4DWSArU5Ep+NOIlAMAOD2K+RKBEgNq0ri4AJiIpUIupWWXiq5KbiJcAAHtErhUt/OMQKBGgJhOrC4C9iArU4kBeCtIlAKAaDkRdQZ5EgJrsrS4AghEVqEVy0SOkSwBANWTGbEOcRICaBNsNAOn/qCPxDaICNViQXYhwCQBwgAFBYYiTCFAL2fF17AXAfyIqUIt9uakIlwAAB9gVeQ1pEgFq8p/2AqAlogIW/iEAwLX4szAQEaAuLe0FwFBEBdz/JwCAeQBg6ggYai8AFiEqUGvd/+9KryFcAgAcoDBitWiMKIkA9VhkLwAOIStQgznZxciWAIAa4B4QhSiJALU4ZC8AHiArUINlOfnIlgCAGuAdEogkiQC1eGAvALKRFai1+Q+yJQDAcRaGsTkQEaAa2T8KAOkfvCvxElmBGuzOTUO2BADUgK0RN5AjEaAWsuvfrRwAf0BUoBZH8pKQLQEANeBI1CXESASoyR8qB0BbRAUsAkQAgD7YzWJARIC6tK0cACMQFajFttwMZEsAQA1YE3EHIRIBajKicgAsQ1SgFmtzspEtAQA1YG7YQ2RIBKjJssoBcBRRgVos5TFAAgB4DBD0FAFHKwfAbUQFavFFdhGyJQCgBngGRiBBUDMCblcOgAhEBWryTcl1hEsAgCNLAUeuQX6gdgREVA4AFgECNgMiAEAXmwFtR3ygdgRkVw6Ab5AUqMm9gnCESwCAAwTFHkF6oHYEfFMRANJ/eQ9BAYsBEQCgD46xCBBoEwHvyQHwCYICtVmVk4twCQBwgKmhfsgOtIiAT+QA+AuCArWZmlXGREACAByYANjULwHRgRYR8Bc5AFojKNCC4MIgpEsAQDXExe5DcKBVBLSWA8ATOQF7AhAAwB4AYKkI8JQDYAxyAi2YmVUqviu9ingJALB3+T9itegQEIvYQKsIGCMHwFzkBFoRVeSPeAkAsENy7C6EBlpGwFw5ANYhJtCKw3nJiJcAADscirqMzEDLCFgnB8BBxARaMS2rTPyt5CbyJQCgMlHrRAv/OEQGWkbAQTkATiMm0JIL+THIlwCAStyIOYXAQOsIOC0HwEWkBFoyO7tEPCu5hoAJALA9+98lIBp5gdYRcFEOgOtICbTmTkEEAiYAQCIw9ijSAldEwHU5AO4hJNCaBdmF4luuAhAAPPonBgSFISxwRQTckwPAHyGBK/DNj0PCBICluRBzFlGBqyLAXw6AUGQErmCKREbxA0RMAFiS7JitogmCAtdFQKgcADHICFy5S+CL0ivImACwFhGrxORQf+QEroyAGDkAkhERuJKr+VHImACwFHdjTiIlcHUEJMsBkImEwNW3AkILAxEyAWAJ4mP3iUbICFwfAZlyABQgIdDDCoEpRQ+RMgFgarJitolWrPgH+oiAAjkAniAg0ANzsotFYfEdxEwAmJL86I2iW2AUAgK9RMAzOQCeIh/QC/Oyi0RaEU8GEADmm/HfJygc8YBuaOSfKOQAeIF4QG+3AwILgxE0AWAKYmL3c9kfdAkBALrlTH4cqwUSAIZe5e9yjC+iAX1eAbAFALcAQNe3BO4XhInnpVcRNgFgmGf8Q2IPc8kfdE1j/yTBJEAwBIuzC8S1/CiRUPT4JzsJyv87tshP7MtNrbhqgNgJADW4FHNG7Iq8JlJjdlbs4Pfmjn7pMTvE/ZgvxdDgEAQDuqdJQFI5jwGCIdcNWJaTLxZlF4rpWaU/+v+mZpXxJAEBoMoM/ub+8T8aQFv7x4nBwaHCOyRQNPFLQCpgKJoGJL9kISAwHXtyU5E7AaAo2yOvIw0wFc0Ck1+wFDCYkuSiRwieAFCEzJhtCANMR/PA5O/ZDAhMydqcbFGO4AkABfgi7CHCANPRIijlW7YDBtMSUhiE5AkAJ9ft34sswJS0DEr5Rg4Af2QBZn1ygMcHCQBnHucbxox+MCmtglP/IQfAPWQBZuV2QQSiJwBqRUDsUUQBpqV1cOpXcgBcRxRgVmZnl4h/lNxA9gRAzVbxi1wr3APYuAfMS5vg1DI5AC4iCjD7ksLIngCoCZdjziAJMDVtQ9KK5AA4jSTA7JsLFRXfRvgEgGOL/kRtEC3YvAdMTvvQtFw5AA4iCTA7+1gciABwkD2RVxEEmJ6OYenJcgCsQxBgBeKLHiN9AqBa0mO2IwewBG7hGcFyAMxFDmAF5L0DnrG9MAFQ5cS/NWIIj/2BRegSkXlDDoAxyAGswrG8RMRPANjlRPRFxACWoWtk5lE5ADwRA1iJmCJ/5E8A/Ah5i1+kAFaiW2TWOjkAWiMFsBLzs4vE05LrBAAB8PrSf/+gMKQAlqJ7VNY0OQD+ghTAahzKSyYACIAKDkVdQQhgOTyisvrKAfAJQgArElEYQABYPACSYncjA7DqFYBGcgC8hwzAiszLLhJfW3yZYCsHgLzcr2dgBDIAa04CjMj8/b8IIeQI+AYhAAsEEQBWYlfkNUQAlqTRD//5s1cBkI0MwKqEFAYRABYjLnYfIgDL0jQg6aXs/lcBEIEIwKrMyS4WX5XcJACsQtQ60S2Qnf7AurQKSnlWOQBuIwKwMrty00Q5AWAJNkbcQgJgadqFppVUDoCjSACszqX8GALA5NyMOY0AgH0AwjOSKgfAMgQAYL35AFYKgNjY/Qz+AD88AXC3cgCMYPAHeCKmZ5WKjOIHBIDJyI7ZKlr5xzH4A/ywBsDuygHQlsEf4J9LBT8puUUAmGbS33rRN4jn/QFe0SM6e3LlAPgDAz/AP1mTkyO+K71KABh9sZ+I1WJm6GMGfYBK9IrJaVE5AN6VeMnAD/BP9uelmP7JALMHwO4oFvsBeJM+sbm/fh0ALAYEYJ+r+dEEgEG5G3OSwR7gDZoFJr945f3KAfCAAR/gp4QVBhIABiMhdi+DPYAdWgen/t1eABxisAf4KTOySkVW8X0CwCDkxGwRbZnxD2CX9qFpGfYCYBGDPYB9FmQXir+ZcLlg0wVA1HoxICiMgR6gCjqFZTy2FwBDGegBqsYnJ088MVkEmCoAJPl7hwQxyANUg3tk5l57AdCSQR6gepZkF4iSktsEgM7Ij94ghgWHMMADvIWe0dlj7QXAfzLAA7ydhdmForD4DgGgG/lvFAO57A/gEIMS8v+PvQCoI/ENAzzA25mXXSTyiu8SAC4mL3qz8AxklT8ABx8BLJdd/5MAsEVAMIM7gGPMzS42/NMBRg4AebZ/98BIBnYAB2kbkvb3ys5/MwD2MrADOM7s7BKRVvSAANCYrJitonNANIM6QM22AY6rLgAmMqgD1IyZWSUiqegRAaARGTHbRceAGAZ0gJpuAxyZeaq6AGjNgA5Qu22E44r8CACVSYvdKdqwyA9AbbcBnlpdAHzEYA5QO6ZllYnIwgACQCWSYveIlsgfwJkA+K8qA8AWAXkM5gC1Y4pETuY5Sa6XCADFtvRdJfIj1otGDOAAtaaJf1L5m763FwDXGMgBak9o3CnxMm6TEIXnCAAnKY5aJ3JvzxJRV2YwiAM4twnQE0cCYDWDOIBzAfAiYoV4EbValOccJwBqSUnUepFx3luknhpGAAA4Scew9HBHAmAQgziAAgFg42XKbiFKLhEANbjkXxS0vEL8ryAAAJx8AiAic7cjAfAXBnEA5QKgIgJiNwhReIYAcOCSf87N6T+SPwEAoMgeAD0dCYB3JZ4zkAMoFwAVRK4S5VlHCICqLvlHrhNp58b8RP4EAIBzNPZPEsOTC3/51gCwRUA0AzmAwgHw6mpA8g4hSi4SAK8v+a8WhQFL7IqfAABQZAngf9hzfVUBsIuBHECdAKggZp0oz/3S8gFQEr1BZF+bUq38CQAA5+gcnhFZkwDwYiAHUDEAXl0NSNzq0rkBrgqA0thNIv/+vLeKnwAAUGQBoK01CYA/MJADqB8AP8wNWClepu51yW0BrQNAFn9J8AqR5jvCYfkTAABOTwBs6XAA2CIgn8EcQIMAeEX0GlGecVDTENAqAEpiNoiyCPm5/rE1Ej8BAOAcTQOSXlbl+eoC4DSDOYCGAfAKeQGh9P1CFF8wfAAUR68TJaGrRUYVs/sJAADVJwAW1CYAJjGYA7ggACo9NvgydY8QRecMFwDy8/xF8qX+s6OdEj8BAOAcncIyrtcmAOoxmAO4MAAqTxZM2CLKs48qfntAyQCQH+eTn+XPu/+FSD09XBHxEwAATj4BEJE5sTYB8I7EUwZ0ANcHwI+uCiTvFOV5J/URABGrREn0elEYsEyknx2jqPQJAADnaOSfKNqHpn1Y4wCwRcAdBnQAHQXAG3MFXiZuE+WZh4QoOKNZAMiX90si1oqCRwtF+jn1pE8AADi9A+DfqnP82wJgMQM6gE4DwM5TBC+TdlRMIKzYhbBifYFLtQ4AeVOeCtlHrRclYatFod9ikXlpgibCJwAAFFkA6IEzAdCBAR3AIAFQ1RoDsRsqFhyS4+Blyq6KNQcqIiHjkHgSvVEUS3IvDlkhigJ9KiSf/3CByLkxrcbP6hMAAPqiR3T2dGcC4AOJlwzqAAYNgLeQd3mCbiRPAAAouwGQV0LBv9U6AGwREMigDkAAEAAAxqFdSNpXb/O7IwGwiEEdgAAgAACMQ5eIzNtKBEBDBnUAAoAAADAOHlHZI5QIgDoSpQzsAAQAAQCgf5r4J5V3i8z6hdMBYIuA4wzsAAQAAQBgiPX/cx1xu6MBMJiBHYAAIAAADPH8/xElA+BjiXIGdwACgAAA0DfukVn1FQsAWwSEMbgDEAAEAIB+aRmU8sxRr9ckAHwY3AEIAAIAQNeX/x+rEQDNGdwBCAACAEC/9IzOHqNGAMjbA3/FAA9AABAAAPqjWUBy+aiU4l8oHgC2CPBlgAcgAAgAAP3RKSwjvSZOr2kA8DggAAFAAADoc/e/DWoGwG8lvmOQByAACAAAfe3+1z8+72PVAsAWARcY5AEIAAIAQFe7/xXU1Oe1CYABDPIABAABAKCr3f/2aBEAv5F4xkAPQAAQAACup5H8/H9Exh9UDwBbBJxhoAf4J+tyy8Th/DJxqqBURKU/Et/GbCUAFCL50kwRHnZRnE9KFacSU8Wm2FTRKiCJgR/gn5v/FNTG5bUNgD4M+gBPxKKcJ8K/uFQklpb8hOzccPH3hMMEQC1JuLtBhMWHCP+E+J+SlChWxKQw+ANIdI3I3KJlAPxa4ikCACuzUJJ/eEmJXflXJr0gRZSlnBfPI9cQAG/Dd5SIDTohghNj7Yv/DZbFpCIAsPzs/57R2f+XZgFgi4CTSACsylQJvyq++VdFcnGuKMy4I76N2UIAvHmZ/+IMERl5WwQmJjgk/lcESH++b0gyIgDL0iE0Pau2HncmAHoiArAqJwpqJv8fUyxycoLFP+IPWD4AEm6vEeFxwcI/Mb5G4q/MveRk0RgRgEXxiMr2cUUAvCfxNTIAq7E6t0wk1Fr+PyYjP1E8ST4jnkeutk4A+I4UsQHHREhiTK2l/ya747kVANajaUBy+cCE/A80DwBbBBxDCGAlZmY/EaElysi/MilF2aIo/ab4LnqTaQMg+cJUERVxQwQmxism/tckJoghYdwKAGvhFp6R5IzDnQ2AjkgBrMSlwlLF5V+ZpJIikZsdIJ7G7TVNACTcWiXC4wIr7tcrLv5KPORWAFiMXjE5U1wZAHUkMhEDWIGteWWqyv9NMvPjxN+STornEauMFwCnR4hY/8MiJDFaVem/yaEEbgWANWgemPzcK7Hg5y4LAFsEzEcOYHa+yH4iokpKNA2AV6QWZYritKviu6j1ug+AlAuTRVT4NRGYFK+p+CvfChgTzq0AsMTl//vO+luJAPhE4gWSADNzp6jUJfL/8e2BApGf9Vh8E7tLdwGQeNNHhMcGqH6Z3xEeJyeJ5v4IAsxNt8isJi4PAFsEXEQSYFb255e5XP5vkpUbJb5KPC5JfKULA2CEiHt8QIQkRrlc+m/yZSK3AsDUS/8WKeFupQLAHVGAGVmSUybidCb/yqQVpovS1Evi+6i1mgVAyrnPRVTYZRGUFK878VdmYgRLBYM5cY/MWq6nAPi5RC7CADMxLavqdf71RnJJvijIvC+exWxXLQASry8R4TF+urjM7wh+SUlsGgSmo1lA8ovuUVn/qpsAsEXAUqQBZmBBzhOxJa9MXCsyhvyd2YTIkQCIe7RHhCREGkL6b3I7OUWsiU0Rg0OZGAjmoHN4xkOlvK1kAHwqUY5AwDBklom58ZkVspeX9pUn+rlqpr8aOLIJUVUBkHJ2vIgOvSCCEuMNKf6q9g24n5wsfBNTK6JgwL1Q0fhxAlIBw9BIwjMmp7HuAsAWATcQC+hV9rNCYsWcsxfFtA2bxMhJk0R3j+5iwKCBphH+Wzchit7y1gBIurZQRMQ8Msxlfmdo16GDaNKkieg9cKAYO2+BmLDngOh35T5RALqlfagyk//UCoBeyAZ0IfvQOEn2lypkP2ry5ArZd+rU0S63QoJNHwFVbUL0KgDiHu4UoQnhppf+K05cvSI+++wzu1REwaBBFVHw+Z6Dot/VB0QBGH7jHy0C4BcShUgINJV9WHyF7Kdv/EH2Hj08qpS9PdZu36a6fKPz88SJK5fFmZs3xJ2wUBGelenSGPhhEyJfkRB+TgQlxrlcyBfu3hFbD+wX85f7iHnLlon7kRGq/rzZixZVGQB2o6BpU9FHjoL5tii49pAoAK1X/nsxNKnwX3UbAKwMCFrIfu65y5LsN9dK9vbwGjpENdEGJieJpWvX/OT3dHPrJMZPniQO+p4WkTnZLguBkLRUl0n/0oP7YuykiaJZ8+Y/EW79+vVFn/79Kv6MGj+7U5fONQqA6qJg3IKFYuLeQ0QBqEqXiMxbSvtajQD4SOIbhAVKyn70lCnCo2cPp2VfFfekb5xKyzUsM0MMGT7srT/b3b2rmLNooTh7+5aILyo0dQDI3+y/WLpEtO/QwSHJNm/RQtwJDVH0d/C9ddNp+VdF02bNRB8vrx+iYN9h0Z8oAAVo7J8kX/7/s+4DwBYB25EY1Ej24QkVsp+xaYsYM3WqqrK3x8bduxQVa0xBvvCeML7Gv4dnn95ixcYN4rYkPTMFwIZdO4VHr56iXr16NZaqHAuP42IV+13m+SxTLQCqioK+FVGw6IcouP6IKIAa0TEsPV4NV6sVAH+UeIncwB7zUvLE3PNXxIzNP8i+h8ayt8ewUSMVFevpG9ed/p2Gjhwhth3YX3EbwYgBcOzCeTF4+HDRqFEjpyW6ae9exX6vrt27axoA1UXB+IVyFBwRQ/yi2MoYqpv818EwAWCLgLPIDuTV9NbllomTBaXiblGpiC4pEZcfPXS58O3xKDZGMbGu3LRRsd9Lni8wcdpUceT8ORGVm6PrALjm7ycmTp8uWrRsqagwh48Zo8xkw3t3XS5/exw6e6ZiJ0N5nYIziSliYXSKaOnPKoaQKNqFpOWr5Wk1A6ApArTu1rm788rEdUn4sXako9cAkGehKyXWkd5jVPkdu3XvJuYtXSIu3L8nEkqKdREAD6OjxKJVK0Wnzm6ibt26qgiybbt2igTAolWr9BsAdrY2vpOcInbEp4q+IaxkaFW6R2WNM1wA2CIgACGanykSK6Vv+celb/l+Dqydr9cAGD1urGIB0LtvH9V/3779+4nVWzaLexHhVf4e8uOGxy9dFPtOnrCLPPlw/JQpdpEfx5PXSKhKptsOHhCefftWzNhXW5DyjHslAqCHp6dxAsDONsenElPF9MgUbhdYhNbBqV+r6Wi1A4CFgUwu/m3SN/2A4prJUa8BIBOQlGiYAKjMiDGjxc4jh0Ww9I3+1e+w98vjokuXztX+e2+7Py9/o5efzX8lodPXr1Vcjm/cpImmglQiAK48fqRL+TsaAG9udLQ+NpUQMDndIrNWGzkA5F0C05Cl+cS/XRJ/YHHt5KjnANh19IghA+AVnTu7iSkzZ4hdx46Kru5d3/rnHZmgJ3/D/3zaNNG6TRuXCVKJAPDZsN40AVA5BDZJIdAUWZqOFkEp3/ePz/uFYQPAFgETkKY5mCqxQxJ/ULFzctRzAIybNNHQAVBTlJihb5QA6N2/v+kCoHIIbIlLFc38EadZcI/MPKG2n7UIgF9LlCFQYyOLP1ihnfL0HADyjPvKl9EJAHMEwPWAANUmKOohAF6TlFgRAgjU2DQNSC7vE5v7keEDgOWBjc3s7CcVs/mVfPRMzwEgs+/ElwSAyQJg1ZbNun59igWADfnpAfcgHiM0Kp0jMm5r4WatAuADiVKEaixW5ZaJsBLlF5/RewDIz9wTAOYKgP5eXpYKgFdXA2ZFpiBUg9EsIPmlZ0zOv5smAGwRMBOpGmeS39GCUpGg0upzeg+Azl06V6zjTwCYIwDkRxnrafCoou4CwMaXiUwSNNa9/6zzWnlZywD4NVsFG2MRn3sKX/I3WgDIyAMyAWCOAFi/c6fuX5+aASDzIDmZxYSMMfP/xeDEgg9NFwC2CJiMZPWLvGRvVIn6G9AYIQCmzp5FAJgkAAaPGG75AHi1sqC8xDCi1S89orMPaulkrQPglxK5yFaf8o/XaAtaIwRAl65dRGRONgFg8AC4Gx4m6jdoQABUXg6ZCNDrqn/fj0svfc+0AWCLgLEIV1+skeQfp+Ee9EYIAJljFy8QAAYPgM379hri9WkZAPKVgHlRRIDe6BObu1FrH7siAN6VyES8+mC1JP9YDeVvpACYOX8eAWDwAJCXLSYA7EfAbCJAN7QPTX8mu9H0AWCLgBHI1/XIG/jElGgrfyMFQLdu7iI6P48AMGgA3I+KNMzr0zwAbBEwnccEdcHAhPxFrnCxqwLgHYkUJOw6lueUiWgXyN9IASBz8tpVAsCgAbD90CFDvDaXBYAtAiZFEAGuxC0842vZiZYJAFsEDELErmFxzhNNZvubIQDmLl5EABg0AEZPGE8AOBgBo8J4RNAVNPJPEkOTCie7ysOuDIA6EhEIWfsNfR4Xl7pM/kYLAI8eHiK2IJ8AMFgAPIyOqvh3CADHeJycJJqzkZArFv0pkl1ouQCwRUBLpKwtxwtcK3+jBYDM2du3CACDBcDu48cNI389BIDMqUQ2EdKSJgFJYnhykbsrHezSALBFgC9i1oYVOWWqLe9r5gBYuNyHADBYAIybMpkAqAXTmBSoGd2jsmJc7V89BMCnEt8iaHWZLhFU7Hr5GzEAenr2EvFFhQSAQQLgcWyMaNaiBQFQC/ySkkS7QHYRVH3Dn8Dkcunb//9n+QCwRYAPklaXs4WlupC/EQNA5uL9ewSAQQLgwOlThpK/ngJA5mISVwHUxiMq+4oe3KuXAHhfIh9Rq7fMr17kb9QAWLpmNQFgkACYOGMGAcBywbqlZVDK85Epxb8lAH4cAUOQtfJMkwgrKSEAnKSPJPSEkmICQOcB4BcfJ1q1aU0AOEtSomgVwK0AVb79R2dv1ot39RQAP5MIRtrKsidfX9/+jRoAMlf9HhMAOg+AI+fPGU7+ugwAiV3xPBWgNG2CU+VFf35GANiPgCZIWzmmSAQXlxAACrFiw3oCQOcBMHXuHAJAsQmBiaIx0lZ65r+3npyrqwCwRcBx5K0MW/L09+3fyAHQb+AAAkDnAdC2fXsCQEHWxDIXQLkNf9Ky9OZbPQbAf0g8ReDO87C4lABQmJvBQQSATgPgyyuXDSl/PQfAo2SWCFaCpgFJ5X1ic/9KADgWAdMQuHOsydXnt3+jB8CabVt1HwCefXpX7GGgVADUrVtXuHt0F/Xq1dN1AMxauJAAUIG5bBvsND2is4/p0bV6DYCfS4Qg8tpzq6iUAFCBQUMG6zIA3N27itkLF4gzt26+XrRoyepVigTAsNGjf9heNzJCzFu2THTo2LEiCvQWAB3d3AgAFbibTAA4Q4fQ9L/JTiMAahYB/y3xHJnXnCU5+v32b/QAkLkbHqaLAHBz6yTGTZpYsfBNZHbWT36H+OKiigWMlm9YLxb4LLNLf69Bomu3bnbpN2ig2Lhnt/CLi/2JFC49fCDGTZ4kmrdorosAOH3jumHlr/cAkBkTzq2AWl76FwPj89vp1bO6DQBbBKxA6DXnREEpAaAiG3btfOtrHDxsqGo/32voELFp7x7hJw3Mzn4WIWmpTsvh4BlfMWDIYNGwYUPVBNmyVatqf4cvli0lAFTEl42CakXP6OzLenas3gPglxJJSL1mPC4mANRk6MgRb32Ni1auUHw/gqVr14jrgQGKfhZKBMDrx8biYsWarVtFNw8PxecLDBjsVe3P7tKtGwGg8nbBCL2ms/7T5cnsvyQAnN8yuByxO8ac7Ce6lr8ZAkDmYUx0ta/x6IXzTv+MLl27iBlfzBWnrl8TcYUFqnwWSgZAZe6EhohZC+aLtu3aKSJI+TZGVT/r3N07hpa/EQJApnsQtwFqstWvV2JBb737VfcBYIuA3cjdMbbmlREAGrBl/75qX2NYZkbFugG1+bu9J4wXe098KcKlv0Ptz0KtAPiRoG/fEqPGjxNNmzatlRwbN2ki7oSHVfn3L1y5kgDQgHWx3AZw/NJ/zkMjuNUoAfChRB6CfzvnC0sJAA0YNdb7ra9TnjXfo2cPh/6+AV6DxIadO8Sj2BhNPwstAqAyu48fE30HDBANGjRwSIzynzt59Uq1f6dHr14EgAZcYZdARxf8kbe3/5AAUDYCeiD4txNaUkIAaIS/A5Pwrvn7iZHeY+z++x5SHMhzBeQ9Bmqy0ZCRA+D1PeW4WLFs3TrR2b1rlY8UtmjZQuw+drTav0d+GsHo8jdKAMgbBCH4t1z6908SgxMLxhjFq4YJAFsEnEHyVbMwR//3/80UADuPHHb4Nd8KCRYrN20U67ZvE/tOnqi4bx1TkO/yz8JVAVCZG0GBYuGK5WLspIkVjx7KyLdAHPl35YggALRjWBjzAKqjV0xOhJGcarQA+FiiGNkbZ+c/MwfA2M8nGOL91nsAOINnv74EgJa3cNghsErahaZ9PzGz7H8SAOpGgDuyt88FA9z/N1MAyAvxBKUkEwAuQr69ovWKhFYPgKvMA7BLY/8kMSghf5TRfGq4ALBFwA6Eb6zlf80YADJ7vzxOALiIlZs3mUL+RgoAlgW2j0dU9mMjutSoAfAriQSkb6wFgMwYAJ9PnUIAuIh+gwYRACwI5HLahKR+Mzq1+H0CQNsI+KvE94j/n4SVlBAAGtO5s5sIy0gnADRG3pbZlbsTWjUAeBLgp5f+e8fmeBjVo4YNAFsEzED8/yS+lABwBQd9TxMAGrN2+3bTyN9QASDRGPG/pktE5mUjO9ToAVBH4g7yfyJmZz8xjHTMFgBTZs0kADRm0LBhBICLcA/iNoBM6+DUr7pFZv2CAHBtBHwiUWb1AFicQwC4CnnNfnvb8eqVyKxMcePeXXHuwgVx9vx5cen6dfEgIsIwAroTFirqO7iSIAGgPKNYC0Be679ckn8To/vT8AFgiwBPqwfAmtwyAsCFyJv/GOG9D5e+8Z89e1b4+vr+iDPSP7svidUIAtq0Z4+p5G+0AJgbxZMAPaKzfczgTlMEgC0C9rMJEAHgKuRd+4zw3l+8cuUn8n/F+YsXDSGgoaNHEQBsCuQypG/+YWbxppkC4H2JOKsGwA4CwKW4d3MX0Xm5un7fo3Oyq5T/Kx5GRepaPvIGSw0bNSIAXMiWOOsGQMew9L9PyCj9DQGgzwj4k8RXBAAB4ApOXLms6/c9LDXlrQFwLzRE1/LZdvCA6eRPABiDlkEpL4cmFX5mJmeaKgBsEdBdopwAIAC0Zs6ihbp+3+MLC94aAH5xsbqWz8hx4wgAAsAlu/wNiM8fbzZfmi4AbBHgQwAQAFrT3aO7Lnb4q447jx9XKf+rt2/rWjwPoqNE4yZNCAACQHN6x+b6mtGVZg0AeX2A6wQAAaA1Z27e0PV7H1dYIK7fvfsT+cuPAj6OjdG1eHYdO2pK+RMAup/0lyY7hQAwVgT8TiKDACAAtGSBzzJDfAahKcniUViouO3nJ+6FhBhCPGMnTSIACABNaR+a/s349NJ/M6snTRsAlfYLeEYAEABa0bNXTxFXVMhKgArzKDZGNGvenAAgADSjRVBK+dCkwpZmdqSpA8AWAUMIAAJAS87fu0sAKMy+UydNK38CQJ+b/AyMz59ndj+aPgBsEbCNACAAtGLJ6lUEgMJ8Pn06AUAAaIZnTM5NK7jRKgHwroQfAUAAaIFnn94ioaSYAFAIv/g40bJVKwKAANCErhGZebIzCABzRcDvJdIJAAJAC+TXSAAogyxHM8ufANAP7ULSno1JK/lfVvGiZQLAFgF/lnhCABAAarN8/ToCQCGmzJlNABAAqtM8MPnlwIT8JlZyoqUCwBYBrSS+JwAIADXpN6C/IW4D6D0A5Mv/bdq1IwAIANUn/fWKyfG2mg8tFwC2CPAiAAgAtbkRFEgAOMnxS5dML38CQBf3/fda0YWWDABbBCwkAAgANVm9ZTMB4CQzF8wnAAgAVekQmh5kVQ9aNgBsEXCIACAA1GLgYC8CwEk6dOpEABAAaso/TfrPOgSANQNAfjzwLgFAAKjFnbBQAqCWnLp+zRLyJwBctsxvcf/4vF9Z2YGWDgBbBHwoEUcAEABqsH7nDgKglsxdsoQAIADUedwvNO0fgxMLfm91/1k+AGwR8KlEIQFAACjNkOHDCIBa0tm9KwFAAChO25C074clF/4X7iMAKkfAZxJfEQAEgNLI+9jr8XOILcgXgUmJupTM2du3LSN/AkA7WgenvhiebO4NfgiA2kdAU4mnBAABoCSb9+7R17f+pCRx6coV4evrW8H5ixfF3eBgXUlmwYrlBAABoCgtg1JeDk0q7IrrCIDqIqCdxLcEAAGgFCO9x+jmvQ+WBvBX4n+TO0GBupFMt549CQACQLmtfQNTygcnFvTDcQSAIxHQTeI5AUAAKIW8op2r33d5ZcLzFy5UGQBnz58X/tLv6WrBXHxw31LyJwDUpVlgshiUkD8GtxEANYmAfhIvCQACQAm2Hzro8vc9MjOjSvm/4kFEuMsFs3TtGgKAAFCEpgHJYmBC/gycRgDUJgJGSJQTAASAs3hPGO/y9z08LfWtAXA/LNTlgunVpw8BQAA4TRP/JNE/Pm8pLiMAnImASQQAAeAsbm6dRFBKskvf9/iiQnHm7Nkq5X/mzBnxOC7WpXK56u8n6tatSwAQAE5v7tMvLm8zDiMAlIiALwgAAsBZdh8/5vL3/mFISJUBcOPBA5fLZcXGjZaTPwGgLI38E0Wf2NxDuIsAUDICVhIABIAzTJgy2fUTAYuLxL3AwIpv+5W/+V+7d7dioqKr5dJ34EACgABwCs+YnPM4iwCwVAQQAPqnc2c3EZqepovPIDo3p+KRwAdhoeJRdJQuxCJvn1yvXj0CgACoNT2is6/gKgLAcrcDCABjsP/USZYCroI127ZaUv4EgDK4R2YifwJAs4mB5QQAAVBTJs+cQQBUwcChQwkAAqBWuIVnXMZNBIDWjwi+JAAIgJrQpUtnEZ6VSQC8we3QEFG/fn0CgACo2YQ/ia4RmYdxEgHgqsWCnhMABEBNOHL+HAHwBht277as/AmA2j/q5xGVvQYXEQCuXjb4WwKAAHCU6XPnEABvMGTkSAKAAKjJCn/lvWNzWOGPANDNBkJPCQACwBHc3buKqNwcAsDGvYhw0bBhQwKAAHB4Y5/+8XlDcQ8BoLethL8iAAgAR/jy8iUCwMbWA/stLX8CwHFaB6e+GJJY4I5zCAA9RsBnEoUEAAHwNmYvXEAA2BgxdiwBQAC8lfah6d+NTClqhmsIAD1HwKcScQQAAVAd3bp3EzEF+ZYPgAfRUaJR48YEAAHwtsf8/uadVvJHHEMAGCECPpS4SwAQANVx+sZ1ywfAzqNHLC9/AqB6ukVmZX6eUfY/cAsBYKQIeFfiEAFAAFTF/GVLLR8A3hMnEgAEQHVL+wbKYylOIQCMGgILCQACwB49evYQcUWFlg2AR7ExommzZgQAAWD3GX/PmJwTOIQAMEMEeEl8TwAQAG9y7u4dywbA3hMnkD8BYOcZ/yR5O9+luIMAMFMEtJJ4QgAQAJVZtHKFSz6D+KJCEZaaKh5FRQq/uFiXiGTCtKnInwD4Ec0Dk1/2jcsdgjMIADNGwJ8l0gkAAuAVnn16i/jiIk3f/8cR4eLs2bPC19e3gjPSf7/56JGmEnksRUeLVq2QPwHwmlbBqd/1i8trgSsIADNHwO8l/AgA5P+KSw8faPbe+0VGvBb/m9x6/FgziRw844v4CYDXtA1J+1v/+Dwe8yMALPOEwDYCAGSWrVurzWX/4qIfffN/E/lKgFa3AybPmoX4CYAKOoSmx/eKyXkfNxAAVguBIRLPCABr07d/P5FQUqz6+x6enlal/F9xPyxMdYH4xceJ1m3bIn6LB4A80989Mms3LiAArBwBf5XIIACszfUAf9Xf94iM9LcHQLj6AXDs4gWkb/EAaBWU8r1nTE5PHEAAEAFZT34ncZ0AsC6rNm9S/X1PkG8BnDtX/S0A6du52gKZMW8e0rdwALiFZ+R4JRb8L8Z+AgD+GQF1JHwkygkA6zHAa5Am771/VFTVkwD9tJkE2L5jR6RvwQBo4p8kesXknJfHOsZ8AgDsh0D32mwrTAAYn9uhIdpEQHS0OHf+/Gvxy1cFbvn7aSKPk9euInwLBoC8je+ghPyxjPEEALw9Av5U0x0FCQDjs277Ns0+A3nSYVRWpvCXZ/1rcNn/FXMWL0L4FguArhGZZaNTi/8PYzsBAI5HwPsS+wkA6zB42FDTLwXs1qULwrdIAMiX/PvE5t6TxzLGdAIAahcCnhJlBIA1uB8ZYdoAOHPrJrK3SADIl/y9EgsmMIYTAOB8BHwicYcAMD+b9uw2bQDM9/FB9hYIgC4RmTkjU4r/H8ZuAgCUfUpgRlW7ChIA5mDE6FGmDQB3Dw9kb+IAaBJQMcv/MLP8CQBQd+GgBALAvMgb5ZgtAC7cv4foTRwArYNTn/WNy+3KGE0AgPoR8CuJHQSAOdl28IDpAmDJmtWI3qQB4BaeET0gPv9DxmYCALQNAXeJYgLAXIweP850AdCjd29Eb7IAaBqQVN4tMsuHsZgAANdFwMcSZwgA8+Dm1kkEJiWaJgCuPH4k6tati+hNFAAdw9IzPWNy/osxmAAAHXAgv2xGZEnJSwLAHOw6dtQ0AbB8wwYkb5YAkMJ0e3KWL2MuAQA643hB6f++UVQal0AAGJ5xkyaaJgB69++P5E0QADdS0r45mp7zGWMtAQD6DoEx/sWl3xIAxr4NIMvZ6AFwIzCAy/8GD4DHycniSFr2DsZWAgAMwrrcsl+fKSi9GV1CABiVfSdPGD4AVm/dguCNGgCJCeJsakberqzCDxhTCQAwIDvyytrdLCotIwCMx6Tp0wwfAAOGDEbwBgyAOympL3em5w1lDCUAwPhPCvz8QH7ZruDiknICwDh07tJZhGdmGDYAbocEi3r16yN4IwVAUpI4lJr9WB4zGDsJADARy3PK/niusDQmjgAwDIclMRg1ANbv2oncjRIAiQniYmr639dmFLFtLwEAZmZvflmfB8WlXxEA+mfanNmGDYDBI0YgdwMEwIOUlPLdaTnzGRsJALDObYGfnSko3R7hgrUDCADH6ereVUTl5hguAO5GhIsGDRsidz0HQFKiOJmaGSaPBYyJBABYkNMFpf9+q6g0JIEA0C3HL100XABs3rcPses4AK6npD09kJb9F8ZAAgDgX84Vlra/V1SaSwDoj1nz5xkuAIZ7j0HsOgwAeXb/3uTMeYx5QADATziaXzZKCoG/EwD6oVs3dxGTn2eYAHgQFSkaNWqE2HUUAPeTU8p3JmfuZ4wDAgDeNj+gzsH8siUPiku/IQD0wanr1wwTADuOHEbqOgmAh5L496ZkX5LPacY2IACgJiHwzpH8snWPi0u/IwBcyxdLlxgmAMZ8/jlSd3EAPEpOFgdTs+7K5zBjGRAA4EwIvHu8oHRHQHHJ9wSAa/Do4SHiCgt0HwCPYqJFk6ZNkbqLAsAvOUkcS80KkM9Zxi4gAEAx5mU/ee9EQemh4OKSFwSA9py9fUv3AbDny+MI3RUBkJQkTqZmRSzNKv0VYxUQAKDmioIfnC4oPRVayzUECIDasXDFct0HwPgpUxC6lgGQlCjOpGXGb8oq+h+MTUAAgGZszC376ExB6aXwGoYAAVA7enn2EvFFhboNgMexMaJ5ixYIXYsAkMR/IS0jbV9W4b8zFgEBAC7jYH7ZR5cKS31DS0qeEwDqcvHBfd0GwAHf08hc7QCQxH85NSPVNyv/E8YeIABAN+zOK/uFb0Hpyodv2WeAAKg9S9eu0W0ATJo5E5mrFAAPkpPLv0zNfPBlVv6/MtYAAQC65lB+mdf1otL0WAJAUfr06ysSSop1FwB+8XGidZs2yFzJAEhMENeSU19sTMzcy5gCBAAYjq15ZXXPFpYGhJaUlBMAynDN3093AXD0wnlErlQAJCWK08npX89LyBrOGAIEABieBdlPfn8kv+zL+8Wl3xMAzrFy00bdBcD0L75A5E4GwIPkZLE/KSPNOz73z4wZQACAGRcV+sWqx8FLxs6a/axL1y4IvRYMGDRQdwHQrkMHRF4L6jdoILzGeJcvvud/fXRqMYv3AAEA1mDJjXstF+7emzRq/LhyxF4zboUE6yYATly5gsxrSM8+fcSczVufzbr9yJuxAAgAsCy+BaX/uuP+oz1Ltmz9pv/AAQjeAdZu26qbAJi9aCFSd4C27duLWUuXis237sfNjUn/Pec+EAAAlTieW9Rg05XrwbN8fF529+iO7KvAa+gQ3QRAx86dEXwVNGnSRIybOlWsO3v+bzuSMoZxjgMBAPD2uQJ1NsWnjV1+4lT2+OnTyzt3dkP8b3AvItzlAeB78waif4N69eqJAUOHisX7Dny3Mjx+N1vxAgEAUPsYeG9tQOiS+Tt3FQ0ZOQL529i4e5fLA2DesmVI30bX7t3FzLXrXyx+EHizf3zebzl3gQAAUJA52U/eX3bp2o7pq1b/zbNPb0sHwLBRI10eALL0rCz9lq1aifFfzHv5xfmrob2jMv9vzlEgAAA0YJ5/2L/NP3z09Pi5c592de9qyQh4FBvjsgC4cO+uJaXfsGFDMWTc+PKZB47Ej30c/gfORSAAAFzIwut3/vfSE6fOzV277uuh0jdjqwTA1gP7XRYAi1atstTl/ckLFpQvPHYicdb1e//FOQcEAIAOOVVQ+t6OgJDZy48cS5y+eMnz3n37mDYARo31dlkAeHj2Mq3wW7VpLUZPmiQW7dn3bO2joIurk3M+5NwCAgDAYGzPK/t/1926e3jhrj1F42dML3fv5m6qCJA3jdE6AOTlnE11Wb9RIzFw2FAxZ936F8uv3YqfHZ/VnnMHCAAAkz1euDYhw2PFhcuP5mzY+M2wMaOFm1snQwfAziOHNQ+AZevXGVr4devWFd169BCTFy4qX3zqbMm8iMTFvWJy3uEcAQIAwDpB8MHqgLApS44ci5i6ZMmzvv37GS4Axk78XPMA8OzXz3DSb9OurRgzZYqYt3f/1wsfBfv2js39n5wDQAAAQAVHC0p/ufrC5S/mb9seN27GjG/7GCAI5CsYwakpmgXAtQD/im/Q+hd+OzFo5Mjy2evW/2P5xasXViRkfsQxDkAAADjMijsP2y85debLebv3ZE7z8fluxLhxopvO5hHsPfGlZgGwcvNmXYm+UaNGokfv3sJ7+nQxa+Om7+af8I1fcOfxBI5dAAIAQOnbBu8uSy9osure4y3LTpyOnLd561cT5859OXCwl8vmE0ycNlWzAOjv5eWy+/YdOnUSQ8aMEdN9fMoXHjry9eKb90M+j0r37h6V9QHHJgABAOASFmQ/+f3W2GTvtVdvXFl26HDunNWrvxs7aaLo0bOH6gEg75UQlpmhegDI2xDLa92rLfumzZqJ3gP6i4mzZ4tF23d8v/LClZxVYbGHvONyeAYfgAAAMMZTB4fzyxpufvB43pJjX16dtWFjyvi5X3w1bNy4530G9Fd0k6NDZ3xVD4B1O3coummOvEVuz379yodPmPDdDJ/lJSsOHgrfe+/BrnNZeV3ZRAeAAAAwLSPOXn1v7MFjLacfOLJkxq69F6dt3BwzyWd5sffMWc+GjBnzolef3sLRSJg6e5bqAeA1fLjDcpfXye/u6VnuNXr0i7Gz5/xj6oqVObO2bPebvffA5jG7D7QbePzcexwDAAQAAFTDoiPHP113/lLv9WfPL17x5cl9Sw4evjRv126/WZu3xE5bvSZr4tJlxRMWLPzqUn5x+rWi0pybRaWFd4pKS+8VlX71sLj0qV9x6bdBxSXfh5aUvIgoKSmPkYi3BUBAYoIISEqUSBL+yUnl/inJ5X4pKS8fp6Y+f5Sa9t3DtLRn99PT/3EnNe2rkZOnfOs9c+bTSQsXPZm5anXe/M1bkn327Atde/TYja1nzh3cfvHypJXHT/yZzwxA//z/ThF64IMg9fkAAAAASUVORK5CYII=;imageBorder=none;perimeterSpacing=21;" vertex="1" parent="1">
          <mxGeometry x="60" y="131.88" width="38.12" height="38.12" as="geometry" />
        </mxCell>
        <mxCell id="amhgZx7DJore0Js3WMlD-12" value="&lt;font color=&quot;#34373b&quot;&gt;PLACE 2&lt;br&gt;&lt;/font&gt;" style="rounded=1;whiteSpace=wrap;html=1;strokeColor=#36393d;strokeWidth=1;fillColor=#eeeeee;" vertex="1" parent="1">
          <mxGeometry x="320" y="130" width="60" height="60" as="geometry" />
        </mxCell>
        <mxCell id="amhgZx7DJore0Js3WMlD-13" value="&lt;font color=&quot;#34373b&quot;&gt;PLACE 3&lt;br&gt;&lt;/font&gt;" style="rounded=1;whiteSpace=wrap;html=1;strokeColor=#36393d;strokeWidth=1;fillColor=#eeeeee;" vertex="1" parent="1">
          <mxGeometry x="390" y="130" width="60" height="60" as="geometry" />
        </mxCell>
        <mxCell id="amhgZx7DJore0Js3WMlD-14" value="&lt;font color=&quot;#34373b&quot;&gt;PLACE 4&lt;br&gt;&lt;/font&gt;" style="rounded=1;whiteSpace=wrap;html=1;strokeColor=#36393d;strokeWidth=1;fillColor=#eeeeee;" vertex="1" parent="1">
          <mxGeometry x="460" y="130" width="60" height="60" as="geometry" />
        </mxCell>
        <mxCell id="amhgZx7DJore0Js3WMlD-15" value="&lt;font color=&quot;#333333&quot;&gt;PLACE 5&lt;br&gt;&lt;/font&gt;" style="rounded=1;whiteSpace=wrap;html=1;strokeColor=#36393d;strokeWidth=1;fillColor=#eeeeee;" vertex="1" parent="1">
          <mxGeometry x="530" y="130" width="60" height="60" as="geometry" />
        </mxCell>
        <mxCell id="amhgZx7DJore0Js3WMlD-17" value="&lt;blockquote style=&quot;margin: 0 0 0 40px; border: none; padding: 0px;&quot;&gt;&lt;blockquote style=&quot;margin: 0 0 0 40px; border: none; padding: 0px;&quot;&gt;&lt;blockquote style=&quot;margin: 0 0 0 40px; border: none; padding: 0px;&quot;&gt;&lt;div style=&quot;&quot;&gt;&lt;font color=&quot;#34373b&quot;&gt;&lt;b&gt;&lt;font style=&quot;font-size: 14px;&quot;&gt;event title&lt;/font&gt;&lt;/b&gt;&lt;/font&gt;&lt;/div&gt;&lt;/blockquote&gt;&lt;/blockquote&gt;&lt;blockquote style=&quot;margin: 0 0 0 40px; border: none; padding: 0px;&quot;&gt;&lt;blockquote style=&quot;margin: 0 0 0 40px; border: none; padding: 0px;&quot;&gt;&lt;div style=&quot;&quot;&gt;&lt;span style=&quot;color: rgb(51, 51, 51); background-color: initial;&quot;&gt;&lt;br&gt;&lt;/span&gt;&lt;/div&gt;&lt;div style=&quot;&quot;&gt;&lt;span style=&quot;color: rgb(51, 51, 51); background-color: initial;&quot;&gt;ssssssssssssss&lt;/span&gt;&lt;br&gt;&lt;/div&gt;&lt;/blockquote&gt;&lt;/blockquote&gt;&lt;blockquote style=&quot;margin: 0 0 0 40px; border: none; padding: 0px;&quot;&gt;&lt;blockquote style=&quot;margin: 0 0 0 40px; border: none; padding: 0px;&quot;&gt;&lt;div style=&quot;&quot;&gt;&lt;span style=&quot;color: rgb(51, 51, 51);&quot;&gt;ssssssssssssss&lt;/span&gt;&lt;/div&gt;&lt;/blockquote&gt;&lt;/blockquote&gt;&lt;blockquote style=&quot;margin: 0 0 0 40px; border: none; padding: 0px;&quot;&gt;&lt;blockquote style=&quot;margin: 0 0 0 40px; border: none; padding: 0px;&quot;&gt;&lt;div style=&quot;&quot;&gt;&lt;span style=&quot;color: rgb(51, 51, 51);&quot;&gt;ssssssssssssss&lt;/span&gt;&lt;/div&gt;&lt;/blockquote&gt;&lt;/blockquote&gt;&lt;blockquote style=&quot;margin: 0 0 0 40px; border: none; padding: 0px;&quot;&gt;&lt;blockquote style=&quot;margin: 0 0 0 40px; border: none; padding: 0px;&quot;&gt;&lt;div style=&quot;&quot;&gt;&lt;br&gt;&lt;/div&gt;&lt;/blockquote&gt;&lt;/blockquote&gt;&lt;/blockquote&gt;" style="rounded=1;whiteSpace=wrap;html=1;strokeColor=#36393d;strokeWidth=1;fillColor=#eeeeee;align=left;" vertex="1" parent="1">
          <mxGeometry x="250" y="250" width="340" height="100" as="geometry" />
        </mxCell>
        <mxCell id="amhgZx7DJore0Js3WMlD-18" value="&lt;font color=&quot;#34373b&quot;&gt;DATE&lt;br&gt;&lt;/font&gt;" style="rounded=1;whiteSpace=wrap;html=1;strokeColor=#36393d;strokeWidth=1;fillColor=#eeeeee;" vertex="1" parent="1">
          <mxGeometry x="260" y="260" width="80" height="80" as="geometry" />
        </mxCell>
        <mxCell id="amhgZx7DJore0Js3WMlD-19" value="&lt;font color=&quot;#34373b&quot;&gt;EVENT&lt;br&gt;&lt;br&gt;&amp;nbsp; &amp;nbsp; &amp;nbsp;description&lt;br&gt;&lt;/font&gt;" style="rounded=1;whiteSpace=wrap;html=1;strokeColor=#36393d;strokeWidth=1;fillColor=#eeeeee;" vertex="1" parent="1">
          <mxGeometry x="620" y="160" width="160" height="60" as="geometry" />
        </mxCell>
        <mxCell id="amhgZx7DJore0Js3WMlD-20" value="&lt;font color=&quot;#34373b&quot;&gt;DATE&lt;br&gt;&lt;/font&gt;" style="rounded=1;whiteSpace=wrap;html=1;strokeColor=#36393d;strokeWidth=1;fillColor=#eeeeee;" vertex="1" parent="1">
          <mxGeometry x="630" y="170" width="40" height="40" as="geometry" />
        </mxCell>
        <mxCell id="amhgZx7DJore0Js3WMlD-21" value="&lt;font color=&quot;#34373b&quot;&gt;EVENT&lt;br&gt;&lt;br&gt;&amp;nbsp; &amp;nbsp; &amp;nbsp;description&lt;br&gt;&lt;/font&gt;" style="rounded=1;whiteSpace=wrap;html=1;strokeColor=#36393d;strokeWidth=1;fillColor=#eeeeee;" vertex="1" parent="1">
          <mxGeometry x="620" y="230" width="160" height="60" as="geometry" />
        </mxCell>
        <mxCell id="amhgZx7DJore0Js3WMlD-22" value="&lt;font color=&quot;#34373b&quot;&gt;DATE&lt;br&gt;&lt;/font&gt;" style="rounded=1;whiteSpace=wrap;html=1;strokeColor=#36393d;strokeWidth=1;fillColor=#eeeeee;" vertex="1" parent="1">
          <mxGeometry x="630" y="240" width="40" height="40" as="geometry" />
        </mxCell>
        <mxCell id="amhgZx7DJore0Js3WMlD-23" value="&lt;font color=&quot;#34373b&quot;&gt;EVENT&lt;br&gt;&lt;br&gt;&amp;nbsp; &amp;nbsp; &amp;nbsp;description&lt;br&gt;&lt;/font&gt;" style="rounded=1;whiteSpace=wrap;html=1;strokeColor=#36393d;strokeWidth=1;fillColor=#eeeeee;" vertex="1" parent="1">
          <mxGeometry x="620" y="300" width="160" height="60" as="geometry" />
        </mxCell>
        <mxCell id="amhgZx7DJore0Js3WMlD-24" value="&lt;font color=&quot;#34373b&quot;&gt;DATE&lt;br&gt;&lt;/font&gt;" style="rounded=1;whiteSpace=wrap;html=1;strokeColor=#36393d;strokeWidth=1;fillColor=#eeeeee;" vertex="1" parent="1">
          <mxGeometry x="630" y="310" width="40" height="40" as="geometry" />
        </mxCell>
        <mxCell id="amhgZx7DJore0Js3WMlD-25" value="&lt;font color=&quot;#34373b&quot;&gt;EVENT&lt;br&gt;&lt;br&gt;&amp;nbsp; &amp;nbsp; &amp;nbsp;description&lt;br&gt;&lt;/font&gt;" style="rounded=1;whiteSpace=wrap;html=1;strokeColor=#36393d;strokeWidth=1;fillColor=#eeeeee;" vertex="1" parent="1">
          <mxGeometry x="620" y="370" width="160" height="60" as="geometry" />
        </mxCell>
        <mxCell id="amhgZx7DJore0Js3WMlD-26" value="&lt;font color=&quot;#34373b&quot;&gt;DATE&lt;br&gt;&lt;/font&gt;" style="rounded=1;whiteSpace=wrap;html=1;strokeColor=#36393d;strokeWidth=1;fillColor=#eeeeee;" vertex="1" parent="1">
          <mxGeometry x="630" y="380" width="40" height="40" as="geometry" />
        </mxCell>
        <mxCell id="amhgZx7DJore0Js3WMlD-28" value="&lt;font color=&quot;#34373b&quot;&gt;EVENT&lt;br&gt;&lt;br&gt;&amp;nbsp; &amp;nbsp; &amp;nbsp;description&lt;br&gt;&lt;/font&gt;" style="rounded=1;whiteSpace=wrap;html=1;strokeColor=#36393d;strokeWidth=1;fillColor=#eeeeee;" vertex="1" parent="1">
          <mxGeometry x="620" y="440" width="160" height="60" as="geometry" />
        </mxCell>
        <mxCell id="amhgZx7DJore0Js3WMlD-29" value="&lt;font color=&quot;#34373b&quot;&gt;DATE&lt;br&gt;&lt;/font&gt;" style="rounded=1;whiteSpace=wrap;html=1;strokeColor=#36393d;strokeWidth=1;fillColor=#eeeeee;" vertex="1" parent="1">
          <mxGeometry x="630" y="450" width="40" height="40" as="geometry" />
        </mxCell>
        <mxCell id="amhgZx7DJore0Js3WMlD-30" value="&lt;font color=&quot;#34373b&quot;&gt;EVENT&lt;br&gt;&lt;br&gt;&amp;nbsp; &amp;nbsp; &amp;nbsp;description&lt;br&gt;&lt;/font&gt;" style="rounded=1;whiteSpace=wrap;html=1;strokeColor=#36393d;strokeWidth=1;fillColor=#eeeeee;" vertex="1" parent="1">
          <mxGeometry x="620" y="510" width="160" height="60" as="geometry" />
        </mxCell>
        <mxCell id="amhgZx7DJore0Js3WMlD-31" value="&lt;font color=&quot;#34373b&quot;&gt;DATE&lt;br&gt;&lt;/font&gt;" style="rounded=1;whiteSpace=wrap;html=1;strokeColor=#36393d;strokeWidth=1;fillColor=#eeeeee;" vertex="1" parent="1">
          <mxGeometry x="630" y="520" width="40" height="40" as="geometry" />
        </mxCell>
        <mxCell id="amhgZx7DJore0Js3WMlD-34" value="&lt;blockquote style=&quot;margin: 0 0 0 40px; border: none; padding: 0px;&quot;&gt;&lt;blockquote style=&quot;margin: 0 0 0 40px; border: none; padding: 0px;&quot;&gt;&lt;blockquote style=&quot;margin: 0 0 0 40px; border: none; padding: 0px;&quot;&gt;&lt;div style=&quot;&quot;&gt;&lt;font color=&quot;#34373b&quot;&gt;&lt;b&gt;&lt;font style=&quot;font-size: 14px;&quot;&gt;event title&lt;/font&gt;&lt;/b&gt;&lt;/font&gt;&lt;/div&gt;&lt;/blockquote&gt;&lt;/blockquote&gt;&lt;blockquote style=&quot;margin: 0 0 0 40px; border: none; padding: 0px;&quot;&gt;&lt;blockquote style=&quot;margin: 0 0 0 40px; border: none; padding: 0px;&quot;&gt;&lt;div style=&quot;&quot;&gt;&lt;span style=&quot;color: rgb(51, 51, 51); background-color: initial;&quot;&gt;&lt;br&gt;&lt;/span&gt;&lt;/div&gt;&lt;div style=&quot;&quot;&gt;&lt;span style=&quot;color: rgb(51, 51, 51); background-color: initial;&quot;&gt;ssssssssssssss&lt;/span&gt;&lt;br&gt;&lt;/div&gt;&lt;/blockquote&gt;&lt;/blockquote&gt;&lt;blockquote style=&quot;margin: 0 0 0 40px; border: none; padding: 0px;&quot;&gt;&lt;blockquote style=&quot;margin: 0 0 0 40px; border: none; padding: 0px;&quot;&gt;&lt;div style=&quot;&quot;&gt;&lt;span style=&quot;color: rgb(51, 51, 51);&quot;&gt;ssssssssssssss&lt;/span&gt;&lt;/div&gt;&lt;/blockquote&gt;&lt;/blockquote&gt;&lt;blockquote style=&quot;margin: 0 0 0 40px; border: none; padding: 0px;&quot;&gt;&lt;blockquote style=&quot;margin: 0 0 0 40px; border: none; padding: 0px;&quot;&gt;&lt;div style=&quot;&quot;&gt;&lt;span style=&quot;color: rgb(51, 51, 51);&quot;&gt;ssssssssssssss&lt;/span&gt;&lt;/div&gt;&lt;/blockquote&gt;&lt;/blockquote&gt;&lt;blockquote style=&quot;margin: 0 0 0 40px; border: none; padding: 0px;&quot;&gt;&lt;blockquote style=&quot;margin: 0 0 0 40px; border: none; padding: 0px;&quot;&gt;&lt;div style=&quot;&quot;&gt;&lt;br&gt;&lt;/div&gt;&lt;/blockquote&gt;&lt;/blockquote&gt;&lt;/blockquote&gt;" style="rounded=1;whiteSpace=wrap;html=1;strokeColor=#36393d;strokeWidth=1;fillColor=#eeeeee;align=left;" vertex="1" parent="1">
          <mxGeometry x="250" y="360" width="340" height="100" as="geometry" />
        </mxCell>
        <mxCell id="amhgZx7DJore0Js3WMlD-35" value="&lt;font color=&quot;#34373b&quot;&gt;DATE&lt;br&gt;&lt;/font&gt;" style="rounded=1;whiteSpace=wrap;html=1;strokeColor=#36393d;strokeWidth=1;fillColor=#eeeeee;" vertex="1" parent="1">
          <mxGeometry x="260" y="370" width="80" height="80" as="geometry" />
        </mxCell>
        <mxCell id="amhgZx7DJore0Js3WMlD-36" value="&lt;blockquote style=&quot;margin: 0 0 0 40px; border: none; padding: 0px;&quot;&gt;&lt;blockquote style=&quot;margin: 0 0 0 40px; border: none; padding: 0px;&quot;&gt;&lt;blockquote style=&quot;margin: 0 0 0 40px; border: none; padding: 0px;&quot;&gt;&lt;div style=&quot;&quot;&gt;&lt;font color=&quot;#34373b&quot;&gt;&lt;b&gt;&lt;font style=&quot;font-size: 14px;&quot;&gt;event title&lt;/font&gt;&lt;/b&gt;&lt;/font&gt;&lt;/div&gt;&lt;/blockquote&gt;&lt;/blockquote&gt;&lt;blockquote style=&quot;margin: 0 0 0 40px; border: none; padding: 0px;&quot;&gt;&lt;blockquote style=&quot;margin: 0 0 0 40px; border: none; padding: 0px;&quot;&gt;&lt;div style=&quot;&quot;&gt;&lt;span style=&quot;color: rgb(51, 51, 51); background-color: initial;&quot;&gt;&lt;br&gt;&lt;/span&gt;&lt;/div&gt;&lt;div style=&quot;&quot;&gt;&lt;span style=&quot;color: rgb(51, 51, 51); background-color: initial;&quot;&gt;ssssssssssssss&lt;/span&gt;&lt;br&gt;&lt;/div&gt;&lt;/blockquote&gt;&lt;/blockquote&gt;&lt;blockquote style=&quot;margin: 0 0 0 40px; border: none; padding: 0px;&quot;&gt;&lt;blockquote style=&quot;margin: 0 0 0 40px; border: none; padding: 0px;&quot;&gt;&lt;div style=&quot;&quot;&gt;&lt;span style=&quot;color: rgb(51, 51, 51);&quot;&gt;ssssssssssssss&lt;/span&gt;&lt;/div&gt;&lt;/blockquote&gt;&lt;/blockquote&gt;&lt;blockquote style=&quot;margin: 0 0 0 40px; border: none; padding: 0px;&quot;&gt;&lt;blockquote style=&quot;margin: 0 0 0 40px; border: none; padding: 0px;&quot;&gt;&lt;div style=&quot;&quot;&gt;&lt;span style=&quot;color: rgb(51, 51, 51);&quot;&gt;ssssssssssssss&lt;/span&gt;&lt;/div&gt;&lt;/blockquote&gt;&lt;/blockquote&gt;&lt;blockquote style=&quot;margin: 0 0 0 40px; border: none; padding: 0px;&quot;&gt;&lt;blockquote style=&quot;margin: 0 0 0 40px; border: none; padding: 0px;&quot;&gt;&lt;div style=&quot;&quot;&gt;&lt;br&gt;&lt;/div&gt;&lt;/blockquote&gt;&lt;/blockquote&gt;&lt;/blockquote&gt;" style="rounded=1;whiteSpace=wrap;html=1;strokeColor=#36393d;strokeWidth=1;fillColor=#eeeeee;align=left;" vertex="1" parent="1">
          <mxGeometry x="250" y="470" width="340" height="100" as="geometry" />
        </mxCell>
        <mxCell id="amhgZx7DJore0Js3WMlD-37" value="&lt;font color=&quot;#34373b&quot;&gt;DATE&lt;br&gt;&lt;/font&gt;" style="rounded=1;whiteSpace=wrap;html=1;strokeColor=#36393d;strokeWidth=1;fillColor=#eeeeee;" vertex="1" parent="1">
          <mxGeometry x="260" y="480" width="80" height="80" as="geometry" />
        </mxCell>
        <mxCell id="amhgZx7DJore0Js3WMlD-38" value="&lt;blockquote style=&quot;margin: 0 0 0 40px; border: none; padding: 0px;&quot;&gt;&lt;blockquote style=&quot;margin: 0 0 0 40px; border: none; padding: 0px;&quot;&gt;&lt;blockquote style=&quot;margin: 0 0 0 40px; border: none; padding: 0px;&quot;&gt;&lt;div style=&quot;&quot;&gt;&lt;font color=&quot;#34373b&quot;&gt;&lt;b&gt;&lt;font style=&quot;font-size: 14px;&quot;&gt;event title&lt;/font&gt;&lt;/b&gt;&lt;/font&gt;&lt;/div&gt;&lt;/blockquote&gt;&lt;/blockquote&gt;&lt;blockquote style=&quot;margin: 0 0 0 40px; border: none; padding: 0px;&quot;&gt;&lt;blockquote style=&quot;margin: 0 0 0 40px; border: none; padding: 0px;&quot;&gt;&lt;div style=&quot;&quot;&gt;&lt;span style=&quot;color: rgb(51, 51, 51); background-color: initial;&quot;&gt;&lt;br&gt;&lt;/span&gt;&lt;/div&gt;&lt;div style=&quot;&quot;&gt;&lt;span style=&quot;color: rgb(51, 51, 51); background-color: initial;&quot;&gt;ssssssssssssss&lt;/span&gt;&lt;br&gt;&lt;/div&gt;&lt;/blockquote&gt;&lt;/blockquote&gt;&lt;blockquote style=&quot;margin: 0 0 0 40px; border: none; padding: 0px;&quot;&gt;&lt;blockquote style=&quot;margin: 0 0 0 40px; border: none; padding: 0px;&quot;&gt;&lt;div style=&quot;&quot;&gt;&lt;span style=&quot;color: rgb(51, 51, 51);&quot;&gt;ssssssssssssss&lt;/span&gt;&lt;/div&gt;&lt;/blockquote&gt;&lt;/blockquote&gt;&lt;blockquote style=&quot;margin: 0 0 0 40px; border: none; padding: 0px;&quot;&gt;&lt;blockquote style=&quot;margin: 0 0 0 40px; border: none; padding: 0px;&quot;&gt;&lt;div style=&quot;&quot;&gt;&lt;span style=&quot;color: rgb(51, 51, 51);&quot;&gt;ssssssssssssss&lt;/span&gt;&lt;/div&gt;&lt;/blockquote&gt;&lt;/blockquote&gt;&lt;blockquote style=&quot;margin: 0 0 0 40px; border: none; padding: 0px;&quot;&gt;&lt;blockquote style=&quot;margin: 0 0 0 40px; border: none; padding: 0px;&quot;&gt;&lt;div style=&quot;&quot;&gt;&lt;br&gt;&lt;/div&gt;&lt;/blockquote&gt;&lt;/blockquote&gt;&lt;/blockquote&gt;" style="rounded=1;whiteSpace=wrap;html=1;strokeColor=#36393d;strokeWidth=1;fillColor=#eeeeee;align=left;" vertex="1" parent="1">
          <mxGeometry x="250" y="580" width="340" height="100" as="geometry" />
        </mxCell>
        <mxCell id="amhgZx7DJore0Js3WMlD-39" value="&lt;font color=&quot;#34373b&quot;&gt;DATE&lt;br&gt;&lt;/font&gt;" style="rounded=1;whiteSpace=wrap;html=1;strokeColor=#36393d;strokeWidth=1;fillColor=#eeeeee;" vertex="1" parent="1">
          <mxGeometry x="260" y="590" width="80" height="80" as="geometry" />
        </mxCell>
        <mxCell id="amhgZx7DJore0Js3WMlD-43" value="" style="edgeStyle=orthogonalEdgeStyle;rounded=0;orthogonalLoop=1;jettySize=auto;html=1;fontSize=15;fontColor=#333333;" edge="1" parent="1" source="amhgZx7DJore0Js3WMlD-40" target="amhgZx7DJore0Js3WMlD-19">
          <mxGeometry relative="1" as="geometry" />
        </mxCell>
        <mxCell id="amhgZx7DJore0Js3WMlD-40" value="Next Events" style="text;html=1;strokeColor=none;fillColor=none;align=center;verticalAlign=middle;whiteSpace=wrap;rounded=0;strokeWidth=2;fontSize=15;fontColor=#333333;" vertex="1" parent="1">
          <mxGeometry x="655" y="130" width="90" height="20" as="geometry" />
        </mxCell>
        <mxCell id="amhgZx7DJore0Js3WMlD-41" value="Last events" style="text;html=1;strokeColor=none;fillColor=none;align=center;verticalAlign=middle;whiteSpace=wrap;rounded=0;strokeWidth=2;fontSize=15;fontColor=#333333;" vertex="1" parent="1">
          <mxGeometry x="250" y="220" width="90" height="20" as="geometry" />
        </mxCell>
        <mxCell id="amhgZx7DJore0Js3WMlD-42" value="&lt;font color=&quot;#34373b&quot;&gt;logo&lt;/font&gt;" style="ellipse;whiteSpace=wrap;html=1;aspect=fixed;strokeColor=#36393d;strokeWidth=1;fillColor=#eeeeee;" vertex="1" parent="1">
          <mxGeometry x="743.75" y="61.879999999999995" width="36.25" height="36.25" as="geometry" />
        </mxCell>
      </root>
    </mxGraphModel>
  </diagram>
</mxfile>
